<?xml version="1.0" encoding="UTF-8" standalone="no"?>
<svg
   version="1.0"
   width="466.02563pt"
   height="467.92819pt"
   viewBox="0 0 466.02563 467.92819"
   preserveAspectRatio="xMidYMid"
   id="svg117"
   sodipodi:docname="DALL·E-2024-12-04-22.16.16-A-simplified-version-of-a-bakery-logo-in-black-and-white.svg"
   inkscape:export-filename="DALL·E-2024-12-04-22.16.16-A-simplified-version-of-a-bakery-logo-in-black-and-white.svg"
   inkscape:export-xdpi="300"
   inkscape:export-ydpi="300"
   xmlns:inkscape="http://www.inkscape.org/namespaces/inkscape"
   xmlns:sodipodi="http://sodipodi.sourceforge.net/DTD/sodipodi-0.dtd"
   xmlns="http://www.w3.org/2000/svg"
   xmlns:svg="http://www.w3.org/2000/svg">
  <defs
     id="defs117" />
  <sodipodi:namedview
     id="namedview117"
     pagecolor="#ffffff"
     bordercolor="#000000"
     borderopacity="0.25"
     inkscape:showpageshadow="2"
     inkscape:pageopacity="0.0"
     inkscape:pagecheckerboard="0"
     inkscape:deskcolor="#d1d1d1"
     inkscape:document-units="pt" />
  <path
     d="m 218.11645,0.36337363 c -0.3,0.3 -4.5,0.69999997 -9.5,1.09999997 -23.9,1.8 -58.9,12.5000004 -84.5,25.8000004 -38.300003,19.9 -66.300003,46.7 -91.200003,87.299996 -18,29.2 -28.6000001,60.1 -31.7000001,91.9 -5.1,51.6 5.9,101 31.8000001,144.1 22,36.5 45,60.6 77.000003,80.9 30.1,19 60.4,30 97.7,35.1 16.1,2.3 46.9,1.6 63.4,-1.4 64.9,-11.9 117.2,-46.6 155.1,-102.9 27.6,-41.1 40.2,-83.7 39.8,-134.2 -0.2,-30.5 -6.7,-59.9 -19.1,-87 -7,-15.2 -17.3,-32.1 -31.7,-51.999996 -6.6,-9.1 -21.9,-25.5 -32,-34.2 -10.6,-9.2 -33.2,-24.8 -43.1,-29.8 -23.1,-11.6 -52.5,-20.5000004 -77.5,-23.4000004 -10.5,-1.29999997 -43.5,-2.19999997 -44.5,-1.29999997 z m 33.5,16.80000037 c 42.4,3.7 81.4,19.1 115,45.4 7.4,5.8 26.4,24.3 33.3,32.5 1.6,1.9 6.3,8.399996 10.4,14.499996 29.8,44 41,79.8 40.2,129.5 -0.4,33 -7.2,59.6 -23,91.3 -16.1,32 -38.1,58.4 -66.8,79.8 -22.4,16.8 -41.4,26.3 -69.9,34.9 -17.3,5.3 -27.7,6.9 -47.7,7.6 -31.8,1.2 -56.8,-3.2 -87,-15.1 -31.2,-12.3 -62.300003,-34.3 -84.400003,-59.5 -15.5,-17.6 -23.2,-29.3 -34.5,-51.9 -11.3,-22.5 -15.8,-37.2 -19.7,-65 -6,-42 0,-82.2 17.5,-117.6 13.5,-27.2 28.1,-47.599996 48.1,-66.799996 23.200003,-22.3 49.700003,-38.4 81.200003,-49.2 17.2,-6 30,-8.6 51.8,-10.8 7.7,-0.8 24.2,-0.6 35.5,0.4 z"
     id="path11"
     style="fill:#000000;stroke:none;stroke-width:0.1" />
  <path
     d="m 229.11645,71.363374 c 0,41.099996 -0.1,40.499996 5.8,39.199996 l 3,-0.6 -0.2,-37.699996 -0.1,-37.7 -4.2,-0.3 -4.3,-0.3 z"
     id="path12"
     style="fill:#000000;stroke:none;stroke-width:0.1" />
  <path
     d="m 270.61645,39.363374 c -0.2,0.7 -2.5,10.7 -5,22.4 -2.4,11.6 -5.6,25.8 -7,31.5 -2.9,11.999996 -3.1,15.399996 -0.9,16.199996 3.4,1.3 5.4,0.6 6,-2.2 0.3,-1.5 1.4,-6.1 2.5,-10.199996 1.1,-4.1 3.3,-12.9 4.9,-19.5 1.7,-6.6 4.4,-17.1 6,-23.4 3.4,-12.6 3.3,-12.9 -2.8,-14.9 -2.5,-0.9 -3.4,-0.8 -3.7,0.1 z"
     id="path13"
     style="fill:#000000;stroke:none;stroke-width:0.1" />
  <path
     d="m 190.91645,40.263374 c -2.4,0.8 -2.8,1.5 -2.8,4.7 0,2.1 3.2,16.3 7.1,31.7 3.9,15.3 7.4,28.899996 7.6,30.099996 0.7,3.2 2.7,4.5 5.7,3.7 3.1,-0.7 3.2,-1.5 0.7,-11.899996 -1.1,-4.4 -4.3,-18.8 -7.1,-32 -2.8,-13.2 -5.3,-24.8 -5.6,-25.8 -0.6,-1.9 -1.6,-2 -5.6,-0.5 z"
     id="path14"
     style="fill:#000000;stroke:none;stroke-width:0.1" />
  <path
     d="m 309.11645,57.263374 c -5.9,10.2 -30,58.799996 -30,60.399996 0,1.8 2.7,4.3 4.6,4.4 1.2,0 7.4,-10.8 21.9,-37.999996 4.9,-9.1 9.9,-18.2 11.2,-20.2 3,-4.9 2.9,-7.2 -0.6,-9.7 -1.6,-1.2 -3.2,-2.1 -3.5,-2.1 -0.3,0 -1.9,2.4 -3.6,5.2 z"
     id="path15"
     style="fill:#000000;stroke:none;stroke-width:0.1" />
  <path
     d="m 151.91645,55.663374 c -1.6,0.8 -2.8,2 -2.8,2.8 0,1.3 28.4,57.599996 31.1,61.699996 1.5,2.3 1.7,2.3 4.2,0.6 1.8,-1.2 2.4,-2.3 2,-3.5 -3.5,-10 -29.4,-63.199996 -30.7,-63.199996 -0.6,0.1 -2.3,0.8 -3.8,1.6 z"
     id="path16"
     style="fill:#000000;stroke:none;stroke-width:0.1" />
  <path
     d="m 329.41645,90.763374 c -6.2,8.1 -13.5,17.499996 -16.3,20.799996 -2.8,3.3 -6.1,7.9 -7.4,10.2 -2.3,4 -2.3,4.1 -0.4,4.6 3,0.8 6.3,-0.8 10.7,-5.2 4.4,-4.4 26.5,-31.799996 29.4,-36.499996 1.8,-2.8 1.8,-3 -0.1,-5.5 -1,-1.4 -2.5,-2.7 -3.3,-2.9 -0.8,-0.1 -6.1,6 -12.6,14.5 z"
     id="path17"
     style="fill:#000000;stroke:none;stroke-width:0.1" />
  <path
     d="m 123.71645,79.563374 c -3,2.8 -3,2.8 2.6,10.7 10.8,15.199996 29.1,37.799996 30.6,37.799996 0.4,0 1.5,-0.7 2.6,-1.5 2.6,-2 1.6,-5.1 -3.7,-11.7 -2.4,-2.9 -8.6,-11.4 -13.7,-18.799996 -9.2,-13.3 -13.7,-19 -15,-19 -0.4,0 -1.9,1.1 -3.4,2.5 z"
     id="path18"
     style="fill:#000000;stroke:none;stroke-width:0.1" />
  <path
     d="m 93.316447,97.063374 c -0.6,1.1 -1.2,2.6 -1.2,3.399996 0,1.9 23.800003,24 39.300003,36.4 l 4.2,3.3 1.7,-2.1 c 1,-1.2 1.8,-2.8 1.8,-3.5 0,-0.6 -4.8,-5.6 -10.7,-11.1 -5.9,-5.4 -15.1,-14.1 -20.5,-19.2 -5.3,-4.999996 -10.500003,-9.199996 -11.500003,-9.199996 -1,0 -2.4,0.9 -3.1,2 z"
     id="path19"
     style="fill:#000000;stroke:none;stroke-width:0.1" />
  <path
     d="m 366.91645,97.763374 c -1.9,1.6 -9.5,8.399996 -16.8,15.299996 -7.4,6.9 -15.8,14.8 -18.8,17.6 l -5.4,5 2.5,3 c 2.3,2.7 2.6,2.8 4.4,1.3 10.1,-8.6 21.8,-19.3 31.6,-28.8 l 11.7,-11.499996 -2.2,-2.3 c -2.7,-2.9 -2.8,-2.9 -7,0.4 z"
     id="path20"
     style="fill:#000000;stroke:none;stroke-width:0.1" />
  <path
     d="m 70.816447,127.06337 c -1,1.7 -1.6,3.4 -1.2,4 1,1.6 38.000003,23 39.800003,23 0.3,0 1,-1.4 1.8,-3.2 1.5,-3.8 2.5,-2.9 -15.600003,-13.5 -7.1,-4.2 -14.8,-8.9 -16.9,-10.5 -4.9,-3.5 -5.8,-3.5 -7.9,0.2 z"
     id="path21"
     style="fill:#000000;stroke:none;stroke-width:0.1" />
  <path
     d="m 382.91645,129.96337 c -4.8,3.1 -13.2,8.2 -18.7,11.4 -10.6,6.1 -11.5,7.3 -8.3,11.5 l 1.8,2.3 18.4,-11.1 c 10.1,-6 19,-11.6 19.7,-12.3 0.9,-0.9 0.6,-1.8 -1.5,-4.3 l -2.7,-3.2 z"
     id="path22"
     style="fill:#000000;stroke:none;stroke-width:0.1" />
  <path
     d="m 231.11645,149.66337 c -3,3.3 -13.6,15.1 -23.5,26.4 -9.9,11.3 -20.4,22.9 -23.5,25.9 -9.2,8.9 -30,21.8 -30,18.5 0,-2.1 9.9,-29.2 12.7,-34.9 6.4,-12.8 15.9,-24.5 25.9,-32.1 5.8,-4.4 8,-7.4 5.4,-7.4 -0.5,0 -7.8,0.9 -16.2,2 -25.3,3.3 -45.2,9.3 -69,21 -14.500003,7.1 -23.000003,13.1 -33.300003,23.5 -16.7,16.8 -24.9,40.8 -18.6,55 2.6,5.9 6.8,11.3 10,13 2.1,1 31.000003,1.3 160.400003,1.4 153.4,0.2 157.8,0.1 162.1,-1.7 7.8,-3.5 11,-10.7 10.9,-24.7 -0.3,-23.7 -15.3,-45.2 -44,-62.6 -9.5,-5.8 -14.9,-8.2 -29.1,-13.4 l -10.4,-3.7 -5.6,5.9 c -3.2,3.3 -12,12.8 -19.7,21.3 -16.8,18.4 -27.9,28.4 -39.3,35 -8.1,4.8 -11.2,6 -11.2,4.1 0,-1.9 8.2,-24.6 10.7,-29.5 7.6,-15.2 22.3,-33.2 32.4,-39.6 2.7,-1.8 4.9,-3.4 4.9,-3.6 0,-2.1 -13.2,-3.7 -41.5,-5 l -15,-0.7 z m -107.7,34.7 c -13.2,7 -26.900003,19.1 -33.700003,29.9 -4.8,7.6 -7.1,13.8 -8.5,22.8 -0.7,4.1 -1.4,7.7 -1.7,7.9 -0.3,0.3 -1.4,-0.5 -2.4,-1.9 -3.7,-4.8 -2.1,-19.9 3,-30.1 2.9,-5.6 11.5,-15.4 17.2,-19.5 10.000003,-7.1 23.800003,-12.7 32.800003,-13.3 0.8,0 -2.2,1.9 -6.7,4.2 z"
     id="path23"
     style="fill:#000000;stroke:none;stroke-width:0.1" />
  <path
     d="m 66.216447,299.06337 c 0.1,13.9 0.7,23.5 1.5,27.3 4,17 16.6,30.9 32.700003,35.9 6,1.8 10.9,1.9 131.7,2.4 124.4,0.4 125.5,0.4 131.6,-1.6 17.5,-5.8 29.7,-18.7 33.8,-35.6 2.1,-8.5 3.2,-48.2 1.4,-48.9 -0.7,-0.3 -75.9,-0.6 -167.1,-0.8 l -165.800003,-0.2 z m 30.9,-3.9 c -1.4,1.1 -3.3,2.7 -4.2,3.4 -2.1,1.7 -2.3,7.6 -0.7,17.5 1.2,7.9 4.4,13.5 10.500003,18.9 6.5,5.7 11.9,8 24.4,10.5 5.9,1.1 11.1,2.4 11.5,2.8 1.2,1.2 -8.3,2 -18.3,1.6 -7.8,-0.3 -10.8,-0.9 -15.5,-3 -8.100003,-3.8 -15.000003,-9.9 -18.500003,-16.6 -3.9,-7.5 -4.3,-9.4 -5.1,-24.5 l -0.6,-12.7 h 9.5 l 9.5,0.1 z"
     id="path24"
     style="fill:#000000;stroke:none;stroke-width:0.1" />
</svg>
